<svg width="1024" height="1024" viewBox="0 0 1024 1024" fill="none" xmlns="http://www.w3.org/2000/svg">
<g clip-path="url(#clip0_6_84)">
<path d="M477.375 227.5C482.859 230.753 487.571 236.101 490 242C491.265 252.27 488.979 260.614 485.188 270.063C484.682 271.373 484.178 272.684 483.677 273.996C482.643 276.692 481.597 279.383 480.539 282.07C478.646 286.887 476.826 291.73 475.003 296.573C473.662 300.13 472.311 303.683 470.957 307.234C465.536 321.458 460.159 335.699 454.779 349.938C454.053 351.861 453.326 353.784 452.599 355.707C448.629 366.213 444.713 376.726 441.026 387.335C439.636 391.3 438.137 395.193 436.5 399.063C433.457 406.29 430.754 413.657 428 421C483.77 421 539.54 421 597 421C595.35 416.71 593.7 412.42 592 408C590.684 404.512 589.372 401.023 588.067 397.531C587.334 395.576 586.602 393.62 585.87 391.664C585.305 390.155 585.305 390.155 584.728 388.614C576.978 367.907 569.183 347.216 561.34 326.543C559.004 320.366 556.692 314.182 554.442 307.973C553.968 306.673 553.495 305.372 553.022 304.072C552.292 302.068 551.563 300.063 550.837 298.057C548.392 291.305 545.922 284.607 542.932 278.073C537.507 265.999 531.279 251.775 535.859 238.512C538.783 233.195 544.111 228.286 549.926 226.363C557.713 224.999 563.795 225.778 570.809 229.418C576.17 233.288 578.178 238.328 580.375 244.313C580.678 245.115 580.98 245.917 581.292 246.743C581.911 248.387 582.526 250.032 583.137 251.679C583.892 253.709 584.658 255.733 585.434 257.754C589.093 267.364 592.537 277.05 595.958 286.748C598.983 295.278 602.146 303.752 605.333 312.222C610.097 324.896 614.764 337.605 619.438 350.313C621.207 355.121 622.976 359.93 624.746 364.738C625.18 365.917 625.613 367.095 626.06 368.308C628.27 374.313 630.486 380.315 632.712 386.314C633.154 387.507 633.596 388.699 634.052 389.928C634.882 392.162 635.712 394.396 636.542 396.629C638.612 402.204 640.647 407.79 642.644 413.392C643.087 414.634 643.531 415.877 643.987 417.158C644.489 418.565 644.489 418.565 645 420C646.461 420.002 646.461 420.002 647.951 420.005C671.637 420.041 695.322 420.101 719.008 420.184C730.462 420.224 741.916 420.256 753.371 420.271C763.354 420.284 773.336 420.311 783.319 420.355C788.606 420.377 793.892 420.393 799.179 420.392C804.154 420.391 809.13 420.409 814.105 420.441C815.931 420.45 817.757 420.451 819.584 420.446C822.078 420.439 824.571 420.457 827.065 420.481C828.148 420.469 828.148 420.469 829.253 420.458C835.722 420.568 839.127 423.363 843.834 427.477C847.412 432.069 846.713 437.82 846.664 443.371C846.671 445.165 846.671 445.165 846.679 446.994C846.682 449.519 846.673 452.043 846.652 454.567C846.625 458.421 846.652 462.273 846.684 466.127C846.68 468.583 846.674 471.04 846.664 473.496C846.674 474.644 846.684 475.792 846.695 476.975C846.592 484.006 845.814 487.779 841 493C835.526 497.152 829.185 496.338 822.625 496.188C821.508 496.174 820.39 496.161 819.238 496.147C816.492 496.111 813.746 496.062 811 496C811.015 496.609 811.031 497.218 811.046 497.845C811.132 503.952 810.62 509.723 809.688 515.75C808.347 524.938 807.331 534.134 806.438 543.375C805.442 553.609 804.381 563.81 803 574C802.51 577.62 802.021 581.241 801.533 584.861C801.191 587.401 800.845 589.94 800.496 592.479C799.451 600.198 798.567 607.918 797.771 615.667C797.193 621.26 796.562 626.844 795.887 632.426C795.791 633.218 795.695 634.01 795.597 634.826C795.397 636.469 795.198 638.111 794.998 639.754C792.893 657.094 790.969 674.449 789.125 691.819C787.755 704.67 786.241 717.471 784.256 730.244C783.46 735.414 782.863 740.516 782.524 745.738C781.376 761.925 774.588 775.442 762.871 786.641C749.028 798.016 735.326 800.452 717.857 800.381C716.008 800.385 714.158 800.389 712.309 800.395C707.243 800.408 702.177 800.402 697.111 800.392C691.641 800.385 686.171 800.396 680.702 800.404C669.993 800.418 659.284 800.415 648.575 800.406C639.871 800.399 631.167 800.398 622.463 800.402C621.224 800.402 619.985 800.402 618.708 800.403C616.191 800.404 613.674 800.405 611.156 800.406C588.228 800.414 565.3 800.406 542.372 800.39C521.452 800.376 500.532 800.377 479.611 800.391C456.095 800.407 432.578 800.414 409.061 800.404C406.553 800.403 404.045 800.402 401.537 800.402C399.686 800.401 399.686 800.401 397.798 800.4C389.105 800.398 380.412 800.402 371.72 800.409C361.125 800.417 350.53 800.415 339.936 800.399C334.531 800.391 329.127 800.388 323.722 800.398C318.772 800.407 313.823 800.402 308.874 800.386C307.085 800.383 305.296 800.384 303.508 800.392C285.475 800.46 271.231 796.334 258 783.625C246.202 771.03 242.708 757.039 240.938 740.25C240.772 738.777 240.606 737.305 240.438 735.832C240.104 732.901 239.776 729.969 239.453 727.037C238.858 721.684 238.183 716.342 237.5 711C236.4 702.258 235.32 693.513 234.254 684.767C234.015 682.806 233.774 680.845 233.533 678.885C232.639 671.528 231.794 664.167 230.985 656.801C229.336 641.779 227.538 626.779 225.697 611.78C222.166 582.994 218.793 554.193 215.599 525.367C215.206 521.83 214.804 518.293 214.394 514.758C214.299 513.936 214.205 513.114 214.108 512.268C213.934 510.755 213.757 509.242 213.577 507.73C213.128 503.798 212.918 499.957 213 496C212.31 496.021 211.619 496.042 210.908 496.064C207.751 496.147 204.595 496.199 201.438 496.25C200.352 496.284 199.266 496.317 198.147 496.352C191.545 496.432 187.16 496.312 182 492C177.487 485.809 177.413 479.471 177.469 472.055C177.465 470.926 177.461 469.797 177.457 468.635C177.455 466.26 177.462 463.884 177.479 461.509C177.5 457.879 177.479 454.251 177.453 450.621C177.456 448.307 177.461 445.994 177.469 443.68C177.461 442.598 177.453 441.517 177.444 440.403C177.541 432.632 179.043 428.932 184.646 423.376C188.184 420.487 191.568 420.31 196.011 420.399C196.8 420.395 197.589 420.39 198.402 420.386C201.037 420.378 203.671 420.405 206.306 420.432C208.199 420.434 210.091 420.433 211.984 420.43C217.116 420.429 222.247 420.458 227.379 420.493C232.744 420.524 238.109 420.527 243.474 420.533C253.632 420.549 263.789 420.59 273.946 420.64C285.51 420.696 297.075 420.723 308.64 420.748C332.427 420.801 356.213 420.889 380 421C380.148 420.064 380.296 419.128 380.448 418.163C380.969 415.179 381.74 412.637 382.813 409.813C383.354 408.368 383.354 408.368 383.906 406.895C384.448 405.462 384.448 405.462 385 404C385.607 402.334 386.211 400.668 386.813 399C387.542 397 388.271 395 389 393C389.262 392.277 389.524 391.553 389.795 390.808C390.693 388.329 391.596 385.852 392.5 383.375C392.785 382.587 393.069 381.8 393.363 380.988C395.097 376.249 396.999 371.633 399.108 367.048C400.313 364.283 401.231 361.456 402.152 358.586C405.274 349.063 408.847 339.688 412.395 330.316C412.629 329.697 412.863 329.078 413.104 328.44C413.804 326.586 414.506 324.732 415.207 322.879C416.736 318.768 418.189 314.631 419.641 310.492C423.251 300.217 427.001 289.994 430.759 279.771C431.934 276.572 433.107 273.371 434.279 270.17C436.154 265.058 438.044 259.952 439.944 254.849C440.96 252.109 441.96 249.363 442.959 246.617C443.561 244.994 444.165 243.372 444.77 241.75C445.029 241.024 445.288 240.298 445.555 239.551C447.845 233.5 451.229 229.852 457 227C463.255 224.915 471.283 224.783 477.375 227.5Z" fill="#EE6734"/>
<path d="M214 510C214.33 510.99 214.66 511.98 215 513C346.01 513 477.02 513 612 513C612 519.93 612 526.86 612 534C609.36 534.99 606.72 535.98 604 537C601.782 538.366 601.782 538.366 600.125 539.938C599.571 540.421 599.016 540.904 598.445 541.402C595.423 544.744 594.723 547.868 594.438 552.295C594.364 553.404 594.291 554.513 594.215 555.655C594.144 556.895 594.073 558.136 594 559.414C593.94 560.398 593.94 560.398 593.879 561.402C592.541 583.514 591.899 605.667 591.125 627.803C590.756 638.356 590.38 648.909 590 659.461C589.939 661.163 589.939 661.163 589.877 662.9C589.264 679.961 588.526 697.012 587.609 714.06C585.387 731.953 585.387 731.953 591 748C597.406 754.092 603.273 755.753 612 757C612 771.19 612 785.38 612 800C570.895 800.068 529.789 800.122 488.684 800.153C483.83 800.157 478.976 800.161 474.122 800.165C473.155 800.166 472.189 800.166 471.193 800.167C455.551 800.18 439.909 800.204 424.267 800.231C408.214 800.26 392.161 800.276 376.108 800.282C366.204 800.286 356.3 800.299 346.396 800.324C339.603 800.34 332.809 800.344 326.016 800.341C322.098 800.339 318.18 800.341 314.262 800.358C310.67 800.372 307.079 800.373 303.487 800.363C301.582 800.361 299.676 800.374 297.771 800.387C282.2 800.306 269.177 794.361 258 783.625C246.202 771.03 242.707 757.039 240.938 740.25C240.772 738.777 240.606 737.305 240.438 735.832C240.104 732.901 239.776 729.969 239.453 727.037C238.858 721.684 238.183 716.342 237.5 711C236.4 702.258 235.32 693.513 234.254 684.767C234.014 682.806 233.774 680.845 233.533 678.885C232.639 671.528 231.793 664.167 230.985 656.801C229.335 641.779 227.537 626.777 225.697 611.777C222.886 588.863 220.149 565.941 217.562 543C217.437 541.89 217.312 540.779 217.183 539.635C216.83 536.507 216.479 533.378 216.129 530.25C215.978 528.903 215.978 528.903 215.824 527.528C215.174 521.69 214.573 515.847 214 510Z" fill="#F78548"/>
<path d="M477.375 227.5C482.859 230.753 487.571 236.101 490 242C491.265 252.27 488.979 260.614 485.188 270.063C484.682 271.373 484.178 272.684 483.677 273.996C482.643 276.692 481.597 279.383 480.539 282.07C478.646 286.887 476.826 291.73 475.003 296.573C473.662 300.13 472.311 303.683 470.957 307.234C465.536 321.458 460.159 335.699 454.779 349.938C454.053 351.861 453.326 353.784 452.599 355.707C448.629 366.213 444.713 376.726 441.026 387.335C439.636 391.3 438.137 395.193 436.5 399.063C433.457 406.29 430.754 413.657 428 421C483.77 421 539.54 421 597 421C595.35 416.71 593.7 412.42 592 408C590.684 404.512 589.372 401.023 588.067 397.531C587.334 395.576 586.602 393.62 585.87 391.664C585.305 390.155 585.305 390.155 584.728 388.614C576.978 367.907 569.183 347.216 561.34 326.543C559.004 320.366 556.692 314.182 554.442 307.973C553.968 306.673 553.495 305.372 553.022 304.072C552.292 302.068 551.563 300.063 550.837 298.057C548.392 291.305 545.922 284.607 542.932 278.073C537.507 265.999 531.279 251.775 535.859 238.512C538.783 233.195 544.111 228.286 549.926 226.363C557.713 224.999 563.795 225.778 570.809 229.418C576.17 233.288 578.178 238.328 580.375 244.313C580.678 245.115 580.98 245.917 581.292 246.743C581.911 248.387 582.526 250.032 583.137 251.679C583.892 253.709 584.658 255.733 585.434 257.754C589.093 267.364 592.537 277.05 595.958 286.748C598.983 295.278 602.146 303.752 605.333 312.222C610.097 324.896 614.764 337.605 619.438 350.313C621.207 355.121 622.976 359.93 624.746 364.738C625.178 365.912 625.61 367.086 626.055 368.296C628.292 374.373 630.535 380.448 632.786 386.521C633.238 387.74 633.69 388.959 634.156 390.215C635.013 392.526 635.871 394.836 636.729 397.145C638.824 402.79 640.884 408.443 642.875 414.125C645.08 420.35 647.521 426.359 650.75 432.125C652.254 435.584 652.224 438.267 652 442C652.66 442 653.32 442 654 442C656.173 448.519 655.818 455.079 652.938 461.313C649.422 467.577 644.867 471.765 638 474C630.819 474.874 624.717 474.815 618.684 470.582C613.6 465.805 611.517 460.766 609.25 454.313C608.934 453.446 608.618 452.579 608.293 451.686C606 445.308 606 445.308 606 443C604.35 443 602.7 443 601 443C602.454 446.44 603.914 449.876 605.375 453.313C605.788 454.289 606.2 455.266 606.625 456.272C607.025 457.209 607.424 458.147 607.836 459.113C608.203 459.977 608.569 460.842 608.947 461.732C610.022 464.198 610.022 464.198 612 467C612 476.9 612 486.8 612 497C480.66 496.67 349.32 496.34 214 496C214 497.98 214 499.96 214 502C213.67 502 213.34 502 213 502C213 500.02 213 498.04 213 496C212.31 496.021 211.619 496.042 210.908 496.064C207.751 496.147 204.595 496.199 201.438 496.25C200.352 496.284 199.266 496.317 198.147 496.352C191.545 496.432 187.16 496.312 182 492C177.487 485.809 177.413 479.471 177.469 472.055C177.465 470.926 177.461 469.797 177.457 468.635C177.455 466.26 177.462 463.884 177.479 461.509C177.5 457.879 177.479 454.251 177.453 450.621C177.456 448.307 177.461 445.994 177.469 443.68C177.461 442.598 177.453 441.517 177.444 440.403C177.541 432.632 179.043 428.932 184.646 423.376C188.184 420.487 191.568 420.31 196.011 420.399C196.8 420.395 197.589 420.39 198.402 420.386C201.037 420.378 203.671 420.405 206.306 420.432C208.199 420.434 210.091 420.433 211.984 420.43C217.116 420.429 222.247 420.458 227.379 420.493C232.744 420.524 238.109 420.527 243.474 420.533C253.632 420.549 263.789 420.59 273.946 420.64C285.51 420.696 297.075 420.723 308.64 420.748C332.427 420.801 356.213 420.889 380 421C380.148 420.064 380.296 419.128 380.448 418.163C380.969 415.179 381.74 412.637 382.813 409.813C383.354 408.368 383.354 408.368 383.906 406.895C384.448 405.462 384.448 405.462 385 404C385.607 402.334 386.211 400.668 386.813 399C387.542 397 388.271 395 389 393C389.262 392.277 389.524 391.553 389.795 390.808C390.693 388.329 391.596 385.852 392.5 383.375C392.785 382.587 393.069 381.8 393.363 380.988C395.097 376.249 396.999 371.633 399.108 367.048C400.313 364.283 401.231 361.456 402.152 358.586C405.274 349.063 408.847 339.688 412.395 330.316C412.629 329.697 412.863 329.078 413.104 328.44C413.804 326.586 414.506 324.732 415.207 322.879C416.736 318.768 418.189 314.631 419.641 310.492C423.251 300.217 427.001 289.994 430.759 279.771C431.934 276.572 433.107 273.371 434.279 270.17C436.154 265.058 438.044 259.952 439.944 254.849C440.96 252.109 441.96 249.363 442.959 246.617C443.561 244.994 444.165 243.372 444.77 241.75C445.029 241.024 445.288 240.298 445.555 239.551C447.845 233.5 451.229 229.852 457 227C463.255 224.915 471.283 224.783 477.375 227.5Z" fill="#EF583E"/>
<path d="M645 421C669.669 420.907 694.338 420.836 719.008 420.793C730.462 420.772 741.916 420.744 753.371 420.698C763.353 420.659 773.336 420.633 783.319 420.624C788.606 420.619 793.892 420.606 799.178 420.577C804.154 420.55 809.129 420.542 814.105 420.548C815.931 420.547 817.757 420.539 819.583 420.523C822.078 420.503 824.571 420.508 827.065 420.519C827.787 420.508 828.509 420.496 829.253 420.484C835.731 420.56 839.124 423.36 843.833 427.477C847.412 432.069 846.713 437.82 846.664 443.371C846.669 444.567 846.674 445.763 846.679 446.995C846.682 449.519 846.673 452.043 846.652 454.567C846.625 458.421 846.652 462.273 846.684 466.127C846.68 468.584 846.674 471.04 846.664 473.496C846.674 474.644 846.684 475.793 846.695 476.975C846.592 484.006 845.813 487.779 841 493C835.526 497.152 829.185 496.338 822.625 496.188C820.949 496.167 820.949 496.167 819.238 496.147C816.492 496.111 813.746 496.062 811 496C811.006 496.68 811.012 497.36 811.018 498.06C811.024 499.403 811.024 499.403 811.031 500.774C811.037 501.66 811.043 502.546 811.049 503.459C810.993 506.38 810.601 509.143 810 512C809.67 512 809.34 512 809 512C808.973 510.084 808.954 508.167 808.938 506.25C808.926 505.183 808.914 504.116 808.902 503.016C809 500 809 500 810 496C744.66 496 679.32 496 612 496C611.67 486.43 611.34 476.86 611 467C608.42 460.776 606.475 456.401 603 451C601.607 447.98 601 446.34 601 443C602.65 443 604.3 443 606 443C606.241 443.671 606.482 444.341 606.731 445.032C607.843 448.091 608.984 451.139 610.125 454.188C610.504 455.243 610.883 456.298 611.273 457.385C613.608 463.553 615.392 467.408 621 471C621.655 471.426 622.31 471.851 622.984 472.289C628.88 474.369 636.723 473.998 642.438 471.5C648.143 468.111 652.047 462.257 654 456C654.241 452.416 654.241 452.416 654.125 448.688C654.107 447.433 654.089 446.179 654.07 444.887C654.047 443.934 654.024 442.982 654 442C653.34 442 652.68 442 652 442C651.66 440.144 651.66 440.144 651.312 438.25C650.423 434.175 649.053 430.507 647.418 426.672C646.966 425.606 646.514 424.539 646.048 423.441C645.702 422.635 645.356 421.83 645 421Z" fill="#D23D34"/>
<path d="M477.375 227.5C482.858 230.753 487.57 236.101 490 242C491.265 252.27 488.979 260.614 485.187 270.063C484.682 271.373 484.178 272.684 483.677 273.996C482.643 276.692 481.597 279.383 480.539 282.07C478.646 286.887 476.826 291.73 475.003 296.573C473.662 300.13 472.311 303.683 470.957 307.234C465.536 321.458 460.159 335.699 454.779 349.938C454.053 351.861 453.326 353.784 452.599 355.707C448.628 366.215 444.711 376.73 441.023 387.341C439.312 392.225 437.374 396.973 435.344 401.731C431.401 411.323 427.985 421.141 424.576 430.933C420.63 442.258 420.63 442.258 418.117 447.555C417.161 449.648 416.294 451.745 415.445 453.883C409.438 468.767 409.438 468.767 403 472C400.337 473.114 397.862 473.659 395 474C394.203 474.106 393.407 474.211 392.586 474.32C386.582 474.748 382.8 473.442 377.98 469.859C373.883 466.012 370.18 460.674 369.797 454.988C369.642 442.876 369.642 442.876 373 437C373.66 437 374.32 437 375 437C375.155 435.268 375.155 435.268 375.312 433.5C375.643 429.798 376.833 426.595 378.173 423.141C379.508 419.685 380.713 416.184 381.937 412.688C384.251 406.11 386.599 399.547 389 393C389.553 391.474 390.107 389.948 390.66 388.422C391.273 386.74 391.886 385.057 392.5 383.375C392.785 382.587 393.07 381.799 393.363 380.987C395.097 376.248 396.999 371.633 399.108 367.048C400.312 364.283 401.231 361.456 402.152 358.586C405.274 349.063 408.847 339.688 412.394 330.316C412.628 329.697 412.862 329.078 413.103 328.44C413.804 326.586 414.505 324.732 415.207 322.879C416.736 318.768 418.189 314.631 419.641 310.492C423.251 300.217 427.001 289.994 430.758 279.771C431.934 276.572 433.107 273.371 434.279 270.17C436.154 265.058 438.044 259.952 439.944 254.849C440.96 252.109 441.959 249.363 442.958 246.617C443.561 244.994 444.165 243.372 444.769 241.75C445.029 241.024 445.288 240.298 445.555 239.551C447.845 233.5 451.229 229.852 457 227C463.255 224.915 471.283 224.783 477.375 227.5Z" fill="#FBBE1D"/>
<path d="M570.809 229.418C576.17 233.288 578.178 238.327 580.375 244.312C580.677 245.114 580.98 245.916 581.292 246.742C581.911 248.387 582.526 250.032 583.137 251.679C583.892 253.708 584.658 255.732 585.434 257.754C589.093 267.364 592.537 277.05 595.958 286.747C598.982 295.278 602.146 303.751 605.333 312.222C610.097 324.896 614.764 337.605 619.437 350.312C621.207 355.121 622.976 359.93 624.746 364.738C625.178 365.912 625.61 367.086 626.055 368.295C628.292 374.373 630.535 380.448 632.786 386.52C633.238 387.74 633.69 388.959 634.156 390.215C635.013 392.525 635.871 394.835 636.729 397.145C638.824 402.79 640.884 408.443 642.875 414.125C645.079 420.35 647.521 426.358 650.75 432.125C652.254 435.584 652.224 438.267 652 442C652.66 442 653.32 442 654 442C656.173 448.519 655.818 455.078 652.937 461.312C649.422 467.577 644.867 471.764 638 474C630.819 474.873 624.716 474.814 618.684 470.582C614.872 467 612.512 463.401 610.773 458.484C610.386 457.41 609.999 456.337 609.601 455.231C609.196 454.082 608.792 452.933 608.375 451.75C604.681 441.5 600.82 431.35 596.663 421.278C594.169 415.16 591.918 408.983 589.758 402.742C585.729 391.105 581.404 379.585 577.062 368.062C576.295 366.019 575.527 363.975 574.76 361.931C570.749 351.259 566.714 340.596 562.647 329.945C559.858 322.64 557.106 315.324 554.441 307.972C553.968 306.672 553.495 305.372 553.021 304.072C552.292 302.068 551.563 300.063 550.837 298.057C548.392 291.305 545.922 284.607 542.931 278.073C537.507 265.999 531.279 251.775 535.859 238.512C538.783 233.195 544.111 228.286 549.926 226.363C557.713 224.999 563.794 225.778 570.809 229.418Z" fill="#FABD1C"/>
<path d="M325 537C329.83 540.858 333.298 544.629 334.308 550.922C334.57 553.289 334.78 555.656 334.974 558.03C335.054 558.935 335.134 559.839 335.216 560.772C335.481 563.777 335.734 566.783 335.988 569.789C336.173 571.909 336.358 574.029 336.544 576.149C336.938 580.645 337.327 585.141 337.712 589.637C338.607 600.077 339.525 610.515 340.441 620.954C340.741 624.375 341.04 627.796 341.34 631.217C342.779 647.654 344.293 664.082 345.937 680.5C346.033 681.452 346.128 682.403 346.226 683.384C346.574 686.846 346.923 690.309 347.272 693.772C347.515 696.181 347.758 698.591 348 701C348.09 701.899 348.181 702.798 348.274 703.724C350.374 724.727 350.374 724.727 350.437 732.812C350.47 733.605 350.503 734.397 350.537 735.213C350.592 741.317 348.778 745.239 345 750C339.938 754.932 335.045 756.114 328.125 756.375C322.576 756.251 318.386 755.517 314 752C307.896 745.483 306.91 740.108 306.203 731.375C306.05 729.562 305.897 727.75 305.744 725.937C305.664 724.973 305.584 724.009 305.501 723.016C303.972 704.663 302.29 686.329 300.5 668C298.766 650.23 297.137 632.455 295.629 614.665C294.641 603.007 293.534 591.378 292.25 579.75C289.007 549.294 289.007 549.294 294.508 542.473C295 541.987 295.492 541.501 296 541C296.492 540.504 296.985 540.007 297.492 539.496C305.145 532.537 316.069 531.73 325 537Z" fill="#CA2E2E"/>
<path d="M719.707 534.856C725.828 537.545 729.707 541.193 733 547C735.604 554.814 733.771 564.185 733.062 572.25C732.975 573.3 732.888 574.349 732.799 575.43C732.134 583.208 732.134 583.208 731.5 586.948C730.987 590.079 730.695 593.161 730.457 596.324C730.305 598.28 730.305 598.28 730.151 600.275C730.096 600.986 730.042 601.697 729.986 602.43C727.958 628.799 725.567 655.139 723.147 681.474C723.016 682.894 722.886 684.315 722.755 685.735C722.691 686.43 722.628 687.125 722.562 687.84C722.139 692.457 721.726 697.074 721.319 701.691C720.809 707.47 720.279 713.247 719.732 719.023C719.538 721.11 719.351 723.198 719.171 725.286C718.924 728.145 718.651 731 718.371 733.856C718.274 735.082 718.274 735.082 718.175 736.334C717.569 742.099 715.755 746.529 712 751C705.212 756.168 698.252 756.734 690 756C683.95 754.335 679.185 750.387 676 745C674.346 740.14 673.813 736.323 674.23 731.219C674.282 730.546 674.334 729.873 674.388 729.18C674.578 726.785 674.789 724.393 675 722C675.165 720.034 675.33 718.068 675.494 716.102C676.077 709.232 676.693 702.366 677.312 695.5C677.424 694.256 677.535 693.011 677.65 691.729C679.059 676.001 680.545 660.285 682.168 644.578C684.293 623.932 686.016 603.248 687.787 582.569C687.979 580.326 688.171 578.083 688.364 575.839C688.602 573.066 688.839 570.292 689.074 567.519C691.074 544.163 691.074 544.163 698.168 538.168C705.17 533.415 711.598 532.293 719.707 534.856Z" fill="#BD2B2A"/>
<path d="M621.547 534.836C627.221 537.673 630.311 541.26 633 547C633.633 550.164 633.611 553.197 633.523 556.414C633.519 557.305 633.514 558.196 633.509 559.114C633.488 561.952 633.432 564.788 633.375 567.625C633.358 569.474 633.344 571.323 633.332 573.172C633.246 582.168 632.955 591.138 632.528 600.124C631.997 611.38 631.662 622.637 631.369 633.901C631.278 637.395 631.185 640.889 631.091 644.382C630.858 653.048 630.629 661.714 630.401 670.381C630.207 677.744 630.011 685.108 629.812 692.471C629.721 695.874 629.633 699.277 629.545 702.679C629.41 707.822 629.255 712.963 629.088 718.105C629.001 720.976 628.937 723.847 628.873 726.719C628.818 728.5 628.762 730.282 628.705 732.064C628.694 732.855 628.682 733.646 628.671 734.46C628.437 740.563 626.834 746.001 622.553 750.531C616.622 755.663 612.064 756.562 604.336 756.449C597.905 755.583 593.91 752.008 589.562 747.437C586.659 742.908 585.746 739.331 585.841 733.955C585.859 732.806 585.877 731.658 585.896 730.475C586.053 725.218 586.274 719.97 586.551 714.719C586.672 712.284 586.793 709.85 586.914 707.416C586.979 706.131 587.044 704.846 587.111 703.522C588.16 682.675 589.076 661.826 589.797 640.965C589.829 640.031 589.861 639.097 589.895 638.134C590.214 628.873 590.525 619.612 590.824 610.35C591.173 599.565 591.554 588.781 592 578C592.032 577.227 592.063 576.454 592.096 575.658C592.281 571.228 592.489 566.8 592.732 562.374C592.836 560.413 592.924 558.451 593.01 556.49C593.474 548.732 594.364 544.729 599.816 539.137C600.393 538.658 600.969 538.18 601.562 537.687C602.141 537.196 602.72 536.705 603.316 536.199C608.358 532.608 615.887 532.978 621.547 534.836Z" fill="#C62D2D"/>
<path d="M420.687 535C426.042 538.233 430.7 543.097 433 549C433.216 551.757 433.325 554.421 433.344 557.18C433.358 558.001 433.371 558.822 433.386 559.668C433.415 561.457 433.441 563.246 433.463 565.034C433.527 569.969 433.627 574.902 433.727 579.836C433.757 581.372 433.757 581.372 433.788 582.94C433.994 592.801 434.413 602.648 434.875 612.5C435.846 633.515 436.65 654.535 437.418 675.558C437.555 679.279 437.692 683.001 437.832 686.722C437.999 691.174 438.162 695.626 438.322 700.078C438.382 701.726 438.443 703.373 438.505 705.02C438.677 709.571 438.824 714.122 438.938 718.675C438.981 720.288 439.032 721.901 439.089 723.513C439.175 726.058 439.234 728.603 439.287 731.15C439.318 731.918 439.349 732.686 439.381 733.478C439.478 740.701 436.942 746.05 432.125 751.375C427.033 756.025 421.44 756.515 414.75 756.379C408.898 755.573 404.869 752.213 401.062 747.875C397.649 743.117 397.74 738.704 397.522 733.046C397.483 732.128 397.445 731.21 397.405 730.264C397.278 727.204 397.158 724.143 397.039 721.082C396.952 718.917 396.865 716.751 396.778 714.586C395.901 692.498 395.204 670.404 394.567 648.307C394.44 643.885 394.308 639.463 394.172 635.041C393.491 612.861 392.859 590.675 392.689 568.485C392.673 566.613 392.649 564.741 392.619 562.869C392.58 560.304 392.567 557.74 392.561 555.175C392.545 554.43 392.528 553.684 392.512 552.916C392.547 546.867 394.677 543.383 398.816 539.137C399.393 538.658 399.969 538.18 400.562 537.688C401.141 537.196 401.72 536.705 402.316 536.199C407.544 532.476 414.834 533.413 420.687 535Z" fill="#CA2E2E"/>
<path d="M519.289 534.723C523.599 536.716 526.373 538.958 529 543C529.358 543.549 529.715 544.099 530.084 544.665C531.402 548.026 531.289 551.304 531.281 554.861C531.287 555.659 531.293 556.456 531.299 557.278C531.316 559.953 531.319 562.628 531.322 565.303C531.331 567.22 531.341 569.137 531.352 571.054C531.379 576.265 531.391 581.476 531.4 586.687C531.406 589.944 531.414 593.2 531.423 596.457C531.451 606.648 531.47 616.839 531.478 627.03C531.487 638.79 531.522 650.549 531.58 662.308C531.623 671.401 531.643 680.493 531.646 689.585C531.648 695.014 531.66 700.443 531.695 705.872C531.728 710.982 531.733 716.091 531.715 721.2C531.714 723.072 531.722 724.944 531.742 726.815C531.912 743.882 531.912 743.882 526.593 750.447C522.063 754.863 518.503 756.244 512.125 756.625C506.771 756.424 503.327 755.087 498.937 752.094C493.95 746.704 492.404 740.906 492.485 733.727C492.478 732.933 492.471 732.14 492.464 731.322C492.446 728.685 492.456 726.048 492.466 723.41C492.459 721.511 492.451 719.611 492.44 717.712C492.418 712.567 492.421 707.423 492.43 702.278C492.435 697.979 492.427 693.679 492.42 689.38C492.403 679.237 492.407 669.094 492.423 658.95C492.44 648.494 492.425 638.037 492.392 627.581C492.366 618.594 492.358 609.607 492.367 600.62C492.372 595.256 492.37 589.893 492.349 584.529C492.331 579.486 492.337 574.443 492.361 569.4C492.366 567.552 492.363 565.705 492.35 563.857C492.241 546.563 492.241 546.563 498 540C504.29 534.17 510.897 532.073 519.289 534.723Z" fill="#CB2E2E"/>
<path d="M428 421C483.77 421 539.54 421 597 421C597 421.33 597 421.66 597 422C595.35 422 593.7 422 592 422C594.64 428.6 597.28 435.2 600 442C591.111 442.859 582.353 443.143 573.426 443.129C572.005 443.131 570.584 443.133 569.164 443.135C565.341 443.139 561.519 443.138 557.697 443.134C553.675 443.132 549.652 443.134 545.63 443.136C538.879 443.138 532.127 443.135 525.376 443.13C517.598 443.125 509.821 443.127 502.043 443.132C495.335 443.137 488.628 443.137 481.92 443.135C477.927 443.133 473.934 443.133 469.941 443.136C466.185 443.139 462.428 443.137 458.672 443.131C456.657 443.129 454.641 443.132 452.625 443.136C445.033 443.118 437.554 442.766 430 442C430.793 437.463 432.45 433.749 434.562 429.688C435.057 428.72 435.057 428.72 435.561 427.732C436.368 426.152 437.183 424.576 438 423C434.7 422.67 431.4 422.34 428 422C428 421.67 428 421.34 428 421Z" fill="#F47961"/>
<path d="M483 233C487.034 236.822 489.675 239.359 490.365 244.959C490.532 254.265 488.634 261.475 485.188 270.062C484.682 271.373 484.178 272.684 483.677 273.996C482.643 276.692 481.597 279.383 480.539 282.07C478.646 286.887 476.826 291.73 475.003 296.573C473.662 300.13 472.311 303.683 470.957 307.234C465.536 321.458 460.159 335.698 454.779 349.938C454.053 351.861 453.326 353.784 452.599 355.707C448.628 366.215 444.711 376.73 441.023 387.341C439.312 392.225 437.374 396.973 435.344 401.73C431.401 411.323 427.985 421.141 424.576 430.933C420.63 442.258 420.63 442.258 418.117 447.555C417.161 449.648 416.295 451.745 415.445 453.883C409.398 468.86 409.398 468.86 403 472C399.563 472.875 399.563 472.875 397 473C396.01 469.37 395.02 465.74 394 462C392.35 461.67 390.7 461.34 389 461C386.037 459.384 384.382 458.181 383.324 454.91C382.637 450.735 382.578 448.698 384.813 445C387.618 442.435 388.473 442.04 392.313 441.75C396.241 442.016 397.957 442.565 401 445C401.707 446.312 402.381 447.644 403 449C411.539 427.218 420.018 405.415 428.375 383.562C428.76 382.557 429.144 381.551 429.541 380.514C431.388 375.685 433.234 370.855 435.079 366.025C441.519 349.174 448.026 332.349 454.573 315.539C460.009 301.581 465.395 287.605 470.762 273.62C471.056 272.857 471.349 272.093 471.652 271.306C472.231 269.795 472.809 268.283 473.385 266.77C474.87 262.88 476.398 259.014 477.997 255.169C478.322 254.372 478.648 253.576 478.983 252.755C479.599 251.25 480.228 249.75 480.871 248.256C483.015 242.974 483.274 238.695 483 233Z" fill="#E79809"/>
<path d="M612 496C677.34 496 742.68 496 810 496C809.67 501.61 809.34 507.22 809 513C711.485 512.505 711.485 512.505 612 512C612 506.72 612 501.44 612 496Z" fill="#E25021"/>
<path d="M562 227C567.964 227.298 571.845 229.912 576 234C577.837 236.981 578.983 240.074 580.125 243.375C580.456 244.266 580.788 245.158 581.129 246.076C581.798 247.88 582.456 249.688 583.104 251.499C583.871 253.639 584.664 255.763 585.484 257.883C589.158 267.438 592.553 277.095 595.958 286.748C598.982 295.278 602.146 303.752 605.333 312.222C610.097 324.896 614.764 337.605 619.438 350.312C621.207 355.121 622.976 359.93 624.746 364.738C625.394 366.499 625.394 366.499 626.055 368.295C628.292 374.373 630.535 380.448 632.786 386.521C633.238 387.74 633.69 388.959 634.156 390.215C635.013 392.525 635.871 394.836 636.729 397.145C638.824 402.79 640.884 408.443 642.875 414.125C645.079 420.35 647.521 426.358 650.75 432.125C652.254 435.584 652.224 438.267 652 442C652.66 442 653.32 442 654 442C655.935 447.805 655.953 454.53 653.5 460.188C653.005 461.116 652.51 462.044 652 463C646.184 459.123 644.696 451.27 642.32 444.914C642.061 444.221 641.802 443.528 641.534 442.814C638.204 433.893 634.942 424.948 631.688 416C631.178 414.601 631.178 414.601 630.659 413.174C624.665 396.7 618.799 380.181 612.969 363.648C608.698 351.543 604.379 339.468 599.818 327.469C597.711 321.923 595.691 316.356 593.75 310.75C590.464 301.267 587.089 291.817 583.688 282.375C583.268 281.21 583.268 281.21 582.839 280.021C578.752 268.694 574.549 257.42 570.159 246.207C568.164 241.102 566.292 236.012 564.698 230.766C564.051 228.785 564.051 228.785 562 227Z" fill="#E7990D"/>
<path d="M645 421C707.7 421 770.4 421 835 421C835 421.33 835 421.66 835 422C775.103 431.337 713.8 440.841 653 440C652.67 440.66 652.34 441.32 652 442C651.773 440.763 651.546 439.525 651.312 438.25C649.821 431.731 649.821 431.731 645 421Z" fill="#E86859"/>
<path d="M188 421C251.03 421 314.06 421 379 421C377.854 429.024 377.854 429.024 376.625 432.75C376.39 433.487 376.156 434.225 375.914 434.984C374.872 437.282 373.968 438.423 372 440C369.841 440.311 369.841 440.311 367.383 440.22C366.493 440.192 365.602 440.165 364.685 440.137C363.799 440.092 362.913 440.047 362 440C361.241 439.967 360.482 439.934 359.701 439.899C357.421 439.784 355.145 439.639 352.867 439.484C352.013 439.429 351.159 439.373 350.279 439.316C347.478 439.132 344.676 438.941 341.875 438.75C340.901 438.684 339.927 438.618 338.924 438.55C300.093 435.911 261.529 432.543 223 427C219.992 426.57 216.984 426.14 213.977 425.711C212.427 425.49 210.878 425.268 209.328 425.047C208.557 424.937 207.785 424.826 206.99 424.713C203.048 424.15 199.106 423.587 195.164 423.023C194.442 422.92 193.721 422.817 192.977 422.711C192.322 422.617 191.666 422.524 190.991 422.427C189.51 422.216 189.51 422.216 188 422C188 421.67 188 421.34 188 421Z" fill="#F27961"/>
<path d="M396 442C400.6 444.2 400.6 444.2 402 447C402.652 451.738 402.656 454.995 400 459.063C396.145 461.552 393.463 461.938 389 461C386.063 459.563 386.063 459.563 384 457C383.03 453.942 382.692 451.196 383 448C386.507 442.196 389.403 441.553 396 442Z" fill="#781F22"/>
<path d="M635 442C637.753 443.796 639.526 445.053 641 448C641.683 454.943 641.683 454.943 639.063 459C635.505 461.323 633.348 461.802 629.16 461.543C626.242 460.81 624.5 459.332 622.82 456.848C621.202 453.201 621.305 450.982 622 447C625.931 442.398 629.007 441.019 635 442Z" fill="#771D20"/>
<path d="M420 441C421.525 441.089 423.047 441.245 424.562 441.438C425.389 441.539 426.215 441.641 427.066 441.746C427.704 441.83 428.343 441.914 429 442C423.75 455.558 418.036 467.869 404.199 474.125C400.493 475.6 397.6 476.16 393.625 476.188C392.689 476.202 391.753 476.216 390.789 476.23C387.839 475.987 385.676 475.231 383 474C385.431 472.784 386.798 472.997 389.5 473.125C396.282 473.164 402.482 472.432 407.496 467.59C410.957 463.155 412.747 457.891 414.75 452.688C415.535 450.691 416.321 448.695 417.109 446.699C417.619 445.382 417.619 445.382 418.14 444.038C419 442 419 442 420 441Z" fill="#D3411A"/>
<path d="M427 422C430.96 422 434.92 422 439 422C437.523 425.147 436.044 428.293 434.562 431.438C433.931 432.784 433.931 432.784 433.287 434.158C432.884 435.012 432.481 435.866 432.066 436.746C431.695 437.537 431.323 438.328 430.94 439.142C430 441 430 441 429 442C426.329 442.141 423.676 442.042 421 442C421.425 434.639 423.983 428.679 427 422Z" fill="#DF563D"/>
<path d="M592 422C593.98 422 595.96 422 598 422C599.172 424.956 600.337 427.915 601.5 430.875C601.834 431.717 602.168 432.559 602.512 433.426C602.985 434.634 602.985 434.634 603.469 435.867C603.762 436.611 604.055 437.354 604.357 438.121C605 440 605 440 605 442C603.35 442 601.7 442 600 442C599.039 440.105 598.081 438.209 597.125 436.312C596.591 435.257 596.058 434.201 595.508 433.113C592 425.87 592 425.87 592 422Z" fill="#E65F49"/>
<path d="M601 443C602.65 443 604.3 443 606 443C606.252 443.671 606.503 444.341 606.763 445.032C607.916 448.087 609.083 451.137 610.25 454.188C610.844 455.77 610.844 455.77 611.449 457.385C614.269 464.744 614.269 464.744 619 471C614.844 469.516 612.976 466.766 611 463C609.236 459.037 607.593 455.034 606 451C605.01 451 604.02 451 603 451C601.743 448.094 601 446.204 601 443Z" fill="#C9470F"/>
<path d="M405 471C405 471.99 405 472.98 405 474C398.829 476.668 391.533 477.263 385.16 474.984C384.091 474.497 384.091 474.497 383 474C385.442 472.779 386.907 472.966 389.625 473.062C394.985 473.132 399.821 471 405 471Z" fill="#D9571A"/>
<path d="M464 227C463.154 227.371 462.309 227.742 461.438 228.125C457.964 230.02 455.398 232.125 452.516 234.793C451 236 451 236 449 236C448.876 236.639 448.752 237.279 448.625 237.937C448.419 238.618 448.213 239.299 448 240C447.01 240.495 447.01 240.495 446 241C446.76 235.68 448.174 233.468 452.438 230.125C456.465 227.166 459.041 225.461 464 227Z" fill="#F2C442"/>
<path d="M597 422C599.238 425.357 600.651 428.834 602.125 432.562C602.402 433.248 602.679 433.933 602.965 434.639C605 439.747 605 439.747 605 442C603.35 442 601.7 442 600 442C599.67 441.01 599.34 440.02 599 439C599.66 439 600.32 439 601 439C600.711 438.108 600.423 437.216 600.125 436.297C599.754 435.126 599.382 433.956 599 432.75C598.629 431.59 598.257 430.43 597.875 429.234C597 426 597 426 597 422Z" fill="#DE7132"/>
<path d="M541 232C541.33 232.66 541.66 233.32 542 234C541.062 236.125 541.062 236.125 540 238C539.34 238 538.68 238 538 238C537.34 243.94 536.68 249.88 536 256C535.67 256 535.34 256 535 256C534.093 240.527 534.093 240.527 538.809 234.32C539.521 233.53 540.248 232.752 541 232Z" fill="#F0C243"/>
<path d="M807 422C813.6 422 820.2 422 827 422C827 422.33 827 422.66 827 423C822.38 423.66 817.76 424.32 813 425C813 424.34 813 423.68 813 423C811.02 423 809.04 423 807 423C807 422.67 807 422.34 807 422Z" fill="#E55F4E"/>
<path d="M613.438 533.812C614.385 533.798 615.332 533.784 616.309 533.77C619.045 534.004 620.664 534.603 623 536C620.53 537.235 619.451 536.904 616.75 536.5C612.945 536.014 609.771 536.13 606 537C605.67 536.34 605.34 535.68 605 535C608.051 533.983 610.242 533.834 613.438 533.812Z" fill="#C33424"/>
<path d="M401 537C401.66 537.33 402.32 537.66 403 538C401.384 540.041 399.714 542.041 398 544C397.34 544 396.68 544 396 544C395.34 545.32 394.68 546.64 394 548C394.318 542.6 397.2 540.477 401 537Z" fill="#C12C22"/>
<path d="M601 436C601.99 436.33 602.98 436.66 604 437C604.33 438.65 604.66 440.3 605 442C603.35 442 601.7 442 600 442C599.67 441.01 599.34 440.02 599 439C599.66 439 600.32 439 601 439C601 438.01 601 437.02 601 436Z" fill="#E26D3D"/>
<path d="M643 447C643.66 447.33 644.32 447.66 645 448C645.407 450.322 645.744 452.657 646 455C645.34 455 644.68 455 644 455C643.34 455.66 642.68 456.32 642 457C642.33 453.7 642.66 450.4 643 447Z" fill="#F7B90F"/>
<path d="M425 428C426 430 426 430 425.25 433.375C424.152 436.56 423.193 438.508 421 441C421.497 436.027 422.553 432.362 425 428Z" fill="#DA6428"/>
<path d="M601 443C602.32 443 603.64 443 605 443C605 444.98 605 446.96 605 449C604.01 448.67 603.02 448.34 602 448C601.67 446.35 601.34 444.7 601 443Z" fill="#D4391A"/>
<path d="M438 386C438.66 386 439.32 386 440 386C439.562 390.557 439.149 393.577 436 397C435.759 392.913 436.577 389.823 438 386Z" fill="#DF9E31"/>
<path d="M483 233C484.65 234.65 486.3 236.3 488 238C487.67 238.66 487.34 239.32 487 240C486.01 240.33 485.02 240.66 484 241C483.67 238.36 483.34 235.72 483 233Z" fill="#E7A723"/>
</g>
<defs>
<clipPath id="clip0_6_84">
<rect width="1024" height="1024" fill="white"/>
</clipPath>
</defs>
</svg>
